<svg id="레이어_1" data-name="레이어 1" xmlns="http://www.w3.org/2000/svg" viewBox="0 0 12 12"><defs><style>.cls-1{fill:#fff;}.cls-2{fill:#333;}</style></defs><title>money</title><circle class="cls-1" cx="6" cy="6" r="6"/><path class="cls-2" d="M8.27,7.84a2,2,0,0,1-.6,1.51,2.63,2.63,0,0,1-1.35.71v.76c0,.1,0,.16,0,.18s-.07,0-.16,0H5.93a.31.31,0,0,1-.18,0,.41.41,0,0,1,0-.17v-.7H5.49a4.87,4.87,0,0,1-1-.11C4.32,10,4.13,9.92,4,9.86a.58.58,0,0,1-.19-.1.37.37,0,0,1,0-.2l0-.39c0-.1,0-.16.06-.16S4,9,4,9.08a2.75,2.75,0,0,0,1.44.35h.25V6.08a7.6,7.6,0,0,1-.8-.49,3.91,3.91,0,0,1-.55-.43,1.76,1.76,0,0,1-.65-1.33,1.81,1.81,0,0,1,.58-1.38A2.32,2.32,0,0,1,4.94,2a2.93,2.93,0,0,1,.79-.25V1.13a.3.3,0,0,1,0-.14A.36.36,0,0,1,5.9,1h.24A.38.38,0,0,1,6.3,1s0,.06,0,.14V1.7a4.18,4.18,0,0,1,1.4.2A.22.22,0,0,1,7.85,2s0,.09,0,.19l0,.33c0,.08,0,.13-.07.14s-.09,0-.17,0A2.42,2.42,0,0,0,7,2.45a6.79,6.79,0,0,0-.7-.06v3.1c.31.17.57.32.79.47a2.76,2.76,0,0,1,.53.45A1.93,1.93,0,0,1,8.27,7.84ZM5.73,2.45A1.29,1.29,0,0,0,4.52,3.81c0,.48.4.93,1.21,1.36ZM7.47,7.76c0-.44-.38-.89-1.15-1.35V9.32a1.59,1.59,0,0,0,.86-.55A1.66,1.66,0,0,0,7.47,7.76Z"/></svg>